<?xml version="1.0" encoding="UTF-8"?>
<svg enable-background="new 0 0 496.021 496.021" version="1.1" viewBox="0 0 496.02 496.02" xml:space="preserve" xmlns="http://www.w3.org/2000/svg">
<path d="M0,304.01v65.6c0,27.2,21.6,46.4,48,46.4h400c26.4,0,48-19.2,48-46.4v-65.6H0z" fill="#2E2F30"/>
<path d="m448 80.01h-400c-26.4 0-48 19.2-48 46.4v65.6h496v-65.6c0-27.2-21.6-46.4-48-46.4z" fill="#CC3434"/>
<rect y="192.01" width="496" height="112" fill="#F5FEFF"/>
<path d="m446.4 416.01c26.4 0 49.6-19.2 49.6-46.4v-65.6h-180.8l131.2 112z"/>
<path d="m448 80.01h-400l132.8 112h315.2v-65.6c0-27.2-21.6-46.4-48-46.4z" fill="#BA2B2B"/>
<polygon points="316 304.01 496 304.01 496 192.01 180 192.01" fill="#D9E2E1"/>
<path d="m448 80.01h-400l370.4 112h77.6v-65.6c0-27.2-21.6-46.4-48-46.4z" fill="#A32323"/>
<polygon points="496 214.41 496 192.01 414.4 192.01" fill="#C9D3D1"/>
<path d="M496,368.81c0.8,28.8-21.6,47.2-48,47.2H48c-26.4,0-48-20.8-48-48"/>

	<path d="m288 287.21c-0.8-11.2-0.8-22.4-1.6-33.6 0-4.8 0-9.6-0.8-14.4-0.8-8 0-16-1.6-23.2-1.6-1.6-4-3.2-6.4-2.4-6.4 0.8-12 7.2-18.4 6.4-1.6-2.4-3.2-5.6-4-10.4v-6.4c0-4-0.8-7.2-3.2-8.8-1.6-0.8-4.8-1.6-7.2-1.6-0.8 0-1.6 0.8-2.4 1.6-3.2-1.6-8-2.4-7.2 2.4 3.2-1.6 6.4 2.4 6.4 5.6 0.8 6.4-1.6 14.4-4.8 16.8-7.2 0-12-5.6-18.4-6.4-5.6-0.8-7.2 3.2-7.2 8.8 0 4.8 0 10.4-0.8 15.2 0 4.8 0 9.6-0.8 14.4v8c-0.8 4.8 0 11.2-0.8 16 0 4 0 8-0.8 11.2 2.4-0.8 6.4 0 9.6 0 0 0.8 0.8 0.8 0.8 2.4-2.4 0.8-2.4 2.4-4.8 3.2 1.6 0.8 1.6 4 3.2 4.8 0 1.6 0 2.4 0.8 2.4 1.6 0.8 6.4 1.6 8.8 2.4 14.4 1.6 36 1.6 49.6-0.8 3.2-0.8 4.8-0.8 4.8-4 1.6-0.8 1.6-3.2 3.2-4.8-1.6-0.8-2.4-1.6-3.2-2.4s-0.8 0-1.6-0.8c0-0.8 0-1.6 0.8-1.6 1.6 0 5.6-0.8 8 0zm-67.2-1.6c-0.8 0.8-1.6 0.8-2.4 1.6-0.8-1.6 0.8-3.2 2.4-3.2v1.6zm40.8 3.2c-3.2 0-6.4 0.8-9.6 0-0.8-0.8-0.8-2.4 0-3.2h9.6c4-0.8 8.8-1.6 12-2.4 0.8 0 0.8 1.6 0.8 2.4-2.4 1.6-6.4 1.6-9.6 2.4 0-3.2-3.2-2.4-3.2 0.8zm3.2 0-1.6 1.6c-0.8-0.8-1.6-0.8-1.6-0.8 0-3.2 3.2-4 3.2-0.8zm-22.4-28c0.8 0.8 1.6 1.6 2.4 1.6 0 1.6-0.8 3.2-0.8 4.8-0.8-1.6-4-4.8-1.6-6.4zm-4 4c-0.8-3.2-0.8-6.4-0.8-9.6l4.8 4.8c-0.8 1.6-2.4 3.2-4 4.8zm6.4 18.4c0.8-4 0.8-8.8 1.6-12.8 0.8 3.2-0.8 8.8-0.8 12 0 1.6 1.6 1.6 1.6 3.2l2.4-2.4c0-4-0.8-8.8-0.8-12.8 0.8 4 1.6 8 1.6 12 0.8 0.8 1.6 0.8 1.6 1.6 0.8 0 0.8-0.8 1.6-0.8 0.8 0.8 0 1.6 0.8 2.4h-3.2c-0.8 0-0.8 0.8-1.6 0.8h-4.8c-0.8-1.6-3.2-0.8-4.8-0.8 0-0.8 0-1.6 0.8-1.6 0-0.8 0.8 0.8 1.6 0.8 0.8-0.8 1.6-0.8 2.4-1.6zm12.8-18.4c-1.6-0.8-2.4-3.2-4-4.8l4.8-4.8c0 3.2-0.8 6.4-0.8 9.6zm3.2-14.4v0c0.8 4 4 8 1.6 12-1.6-0.8-2.4-3.2-4-4 0-3.2 0.8-5.6 2.4-8zm-6.4 12c-0.8 1.6-1.6 4-2.4 5.6-0.8-1.6-0.8-3.2-1.6-4.8 0.8-0.8 1.6-0.8 2.4-2.4 0.8 0 1.6 0.8 1.6 1.6zm-8 28.8c-0.8 0-1.6-0.8-2.4-1.6 0-0.8 0.8-0.8 0.8-2.4 1.6 0 2.4 2.4 1.6 4zm0-4h3.2c-0.8 0.8-0.8 2.4-2.4 1.6 0-0.8-0.8-0.8-0.8-1.6zm4 0c0.8 0 0.8 1.6 1.6 2.4 0 0.8-1.6 0.8-1.6 1.6-1.6-0.8-0.8-3.2 0-4zm9.6-4c0.8 0 1.6 1.6 1.6 2.4h-2.4c0-0.8 0.8-1.6 0.8-2.4zm4 1.6c0-1.6 0.8-2.4 1.6-3.2 0.8 0.8 1.6 1.6 1.6 2.4-0.8 0-2.4 0.8-3.2 0.8zm4-0.8c-0.8-0.8-1.6-2.4-3.2-4-0.8 1.6-1.6 3.2-1.6 4.8h-0.8c-0.8-0.8-1.6-2.4-1.6-3.2-0.8 0.8-0.8 2.4-1.6 4h-2.4c-1.6-2.4-0.8-5.6 0-8.8 1.6 0.8 2.4 2.4 3.2 4 0.8-1.6 0.8-3.2 1.6-4.8 1.6 0.8 2.4 2.4 3.2 4 0.8-1.6 1.6-4 2.4-5.6h0.8l2.4 9.6h-2.4zm-3.2-5.6c-1.6-0.8-1.6-2.4-3.2-4-0.8 1.6-0.8 3.2-1.6 4.8-1.6-0.8-2.4-3.2-4-4-0.8 1.6-0.8 3.2-0.8 4.8-0.8-2.4-1.6-5.6-2.4-8.8 0.8 0 2.4 2.4 3.2 3.2 0.8-2.4 0.8-4.8 1.6-6.4 1.6 0.8 1.6 2.4 2.4 3.2l2.4-4.8c1.6 0.8 2.4 2.4 4 3.2 1.6 4-0.8 6.4-1.6 8.8zm-2.4-12c-0.8 1.6-0.8 2.4-1.6 4-1.6-0.8-1.6-2.4-2.4-3.2-0.8 1.6-1.6 4.8-1.6 7.2-1.6-1.6-4-2.4-4-4.8 0-0.8 0.8-2.4 0.8-3.2 0.8-0.8 0.8-1.6 1.6-3.2 0.8 0.8 1.6 2.4 3.2 3.2 0-2.4 0-4.8 0.8-7.2 1.6 0.8 2.4 2.4 4 4 0.8-0.8 0.8-1.6 0.8-2.4 1.6 2.4 2.4 6.4 2.4 8.8-1.6-0.8-2.4-2.4-4-3.2zm1.6-12c0-4.8-0.8-9.6 0-13.6h0.8c0 8 0.8 16 0.8 24-1.6-3.2-1.6-7.2-1.6-10.4zm-16 9.6c-10.4-6.4-16.8-17.6-16.8-34.4 7.2 0 12.8-1.6 16.8-4.8l4.8 2.4c3.2 1.6 7.2 2.4 12 2.4 0 16.8-6.4 28-16.8 34.4zm-10.4-5.6c-0.8 1.6-2.4 3.2-4 4-3.2-3.2 0.8-8 0.8-12 2.4 1.6 3.2 4.8 3.2 8zm-6.4-17.6c1.6 1.6 0.8 5.6 0.8 8.8 0 5.6 0 10.4-1.6 14.4 0-7.2 0.8-16 0.8-23.2zm1.6 20c0 0.8 0.8 1.6 0.8 2.4l4-4c0.8 1.6 0.8 4.8 0.8 7.2 0.8-0.8 1.6-2.4 3.2-3.2 0.8 2.4 1.6 4 2.4 6.4-0.8 2.4-2.4 3.2-4 4.8l-2.4-7.2c-1.6 0.8-0.8 3.2-2.4 3.2-0.8-1.6-0.8-2.4-1.6-4-1.6 0.8-2.4 2.4-4 3.2 0-0.8 0.8-1.6 0.8-2.4 0.8-2.4 0.8-4.8 2.4-6.4zm0 6.4c0.8 0.8 1.6 3.2 2.4 4.8 0.8-0.8 0.8-2.4 2.4-3.2 0.8 2.4 1.6 4.8 2.4 6.4l3.2-3.2c-0.8 2.4-1.6 5.6-1.6 8-0.8-0.8-0.8-3.2-0.8-4.8-1.6 0.8-2.4 3.2-4 4-0.8-1.6-1.6-3.2-1.6-4.8-1.6 0.8-1.6 2.4-3.2 4-0.8-2.4-3.2-4.8-2.4-8 1.6-0.8 2.4-2.4 3.2-3.2zm-1.6 12c0.8-1.6 1.6-2.4 3.2-4 0.8 1.6 1.6 3.2 1.6 4.8 1.6-0.8 2.4-3.2 3.2-4 0.8 2.4 1.6 6.4 0 8.8h-2.4c-0.8-0.8-0.8-2.4-1.6-4-0.8 0.8-1.6 2.4-2.4 3.2h-0.8c-0.8-1.6-1.6-3.2-1.6-4.8-0.8 0.8-1.6 2.4-2.4 3.2-0.8 0-1.6 0-2.4-0.8 0.8-3.2 1.6-6.4 3.2-10.4 0.8 3.2 1.6 6.4 2.4 8zm5.6 6.4h-2.4c0-0.8 0.8-1.6 0.8-2.4 0.8 0 0.8 1.6 1.6 2.4zm-4.8-0.8c-1.6 0-2.4-0.8-3.2-0.8 0-1.6 1.6-1.6 1.6-3.2 0.8 1.6 1.6 2.4 1.6 4zm0 0.8c4.8 0.8 8 0.8 12 0.8 0.8 0.8 0 1.6 0 3.2-3.2 0.8-6.4 0-9.6 0 0-3.2-2.4-4-2.4-0.8-3.2-0.8-8-0.8-8-2.4v-2.4s-0.8-0.8 0.8-0.8c2.4 0.8 4 1.6 7.2 2.4zm1.6 3.2c-0.8 0-0.8 0.8-0.8 0.8-1.6 0-1.6-4 0.8-3.2v2.4zm41.6-4.8c1.6 0 2.4 1.6 2.4 3.2-0.8 0-1.6-0.8-2.4-0.8v-2.4zm-4.8-0.8c-1.6-5.6-3.2-10.4-4.8-16 1.6 0.8 2.4 2.4 3.2 3.2 0-13.6-1.6-28-1.6-42.4-1.6 0.8-3.2 1.6-6.4 1.6-5.6 0-10.4-2.4-13.6-4.8-2.4 1.6-6.4 4-10.4 4.8s-7.2 0.8-9.6-1.6c-0.8 14.4-1.6 28-1.6 42.4 1.6-0.8 2.4-2.4 4-3.2-1.6 5.6-3.2 12-4.8 16.8-3.2-0.8-7.2-3.2-8 2.4h-6.4c0.8 0 0.8-1.6 2.4-3.2 0.8-21.6 1.6-42.4 2.4-64.8-1.6 0-3.2 0.8-4 1.6 0-3.2 1.6-6.4 4.8-6.4 7.2-0.8 12.8 6.4 20 6.4 0 0.8-0.8 0.8-1.6 1.6 1.6 0 4 0 4.8-0.8 0 0.8-0.8 1.6-1.6 2.4 3.2 0 5.6-1.6 6.4-3.2l2.4 2.4 2.4-2.4c1.6 1.6 4 3.2 7.2 3.2 0-0.8-1.6-1.6-1.6-2.4 1.6 0.8 4 0.8 4.8 0.8 0-0.8-1.6-0.8-1.6-1.6 8 0 12-7.2 20-6.4 3.2 0 4.8 2.4 4.8 6.4-1.6-0.8-2.4-1.6-4-1.6 0.8 17.6 1.6 39.2 2.4 56.8 0 2.4-0.8 5.6 0 7.2s3.2 2.4 4 4h-8c1.6-3.2-2.4-4-6.4-3.2z" fill="#DB9C00"/>
	<g fill="#996A00">
		<path d="m261.6 229.61c-5.6 0-10.4-2.4-13.6-4.8-2.4 1.6-6.4 4-10.4 4.8s-7.2 0.8-9.6-1.6v3.2l4 3.2v-4c7.2 0 12.8-1.6 16.8-4.8l4.8 2.4c3.2 1.6 7.2 2.4 12 2.4 0 10.4-3.2 19.2-8 25.6h0.8l0.8-0.8v1.6c0-2.4 0.8-4.8 2.4-6.4h0.8c0 3.2 2.4 7.2 1.6 10.4v-0.8 0.8l0.8 0.8c-0.8-1.6-0.8-4.8-0.8-7.2 0-4.8-0.8-9.6 0-13.6h0.8c0 7.2 0.8 15.2 0.8 22.4l4 3.2c0-12.8-0.8-25.6-1.6-38.4-1.6 0.8-3.2 1.6-6.4 1.6z"/>
		<path d="m286.4 253.61c0-4.8 0-9.6-0.8-14.4-0.8-8 0-16-1.6-23.2-1.6-1.6-4-3.2-6.4-2.4-6.4 0.8-12 7.2-18.4 6.4-1.6-2.4-3.2-5.6-4-10.4v-6.4c0-4-0.8-7.2-3.2-8.8-1.6-0.8-4.8-1.6-7.2-1.6-0.8 0-1.6 0.8-2.4 1.6-3.2-1.6-8-2.4-7.2 2.4 3.2-1.6 6.4 2.4 6.4 5.6 0.8 6.4-1.6 14.4-4.8 16.8-7.2 0-12-5.6-18.4-6.4-4 0-5.6 1.6-6.4 4 0.8-1.6 2.4-3.2 4.8-3.2 7.2-0.8 12.8 6.4 20 6.4 0 0.8-0.8 0.8-1.6 1.6 1.6 0 4 0 4.8-0.8 0 0.8-0.8 1.6-1.6 2.4 3.2 0 5.6-1.6 6.4-3.2l2.4 2.4 2.4-2.4c1.6 1.6 4 3.2 7.2 3.2 0-0.8-1.6-1.6-1.6-2.4 1.6 0.8 4 0.8 4.8 0.8 0-0.8-1.6-0.8-1.6-1.6 8 0 12-7.2 20-6.4 3.2 0 4.8 2.4 4.8 6.4-1.6-0.8-2.4-1.6-4-1.6 0.8 17.6 1.6 39.2 2.4 56.8v2.4l4.8 4c0.8-9.6 0.8-18.4 0-28z"/>
		<path d="m216 220.81v-2.4c-0.8 0-1.6 0-2.4 0.8l2.4 1.6z"/>
	</g>
	<path d="m216.8 219.21c-0.8 20.8-1.6 41.6-2.4 61.6 1.6-0.8 3.2-3.2 4.8-4 0.8-19.2 1.6-35.2 2.4-53.6-1.6-1.6-3.2-3.2-4.8-4z" fill="#DB9C00"/>
	<path d="m216.8 221.61 4.8 4v-2.4c-1.6-1.6-3.2-3.2-4.8-4v2.4z" fill="#996A00"/>
	<path d="m279.2 219.21c-0.8 1.6-4 2.4-4.8 4v7.2c1.6 14.4 0.8 30.4 1.6 45.6l2.4 2.4s1.6 2.4 2.4 1.6c0-19.2-0.8-42.4-1.6-60.8z" fill="#DB9C00"/>
	<path d="m279.2 219.21c-0.8 1.6-4 2.4-4.8 4v7.2c0.8 12.8 0.8 27.2 1.6 41.6l4.8 4c0-18.4-0.8-39.2-1.6-56.8z" fill="#996A00"/>
	<path d="m220.8 275.21c0.8-1.6 3.2-2.4 4-4s0-4 0-6.4c0.8-12 1.6-26.4 1.6-37.6-1.6-0.8-2.4-2.4-4-3.2 0 16.8-0.8 34.4-1.6 51.2z" fill="#DB9C00"/>
	<path d="m222.4 226.41 4 3.2v-2.4c-1.6-0.8-2.4-2.4-4-3.2 0.8 0.8 0 1.6 0 2.4z" fill="#996A00"/>
	<path d="m269.6 227.21c0.8 14.4 0.8 29.6 1.6 44l4 4c-0.8-16.8-1.6-35.2-2.4-50.4-0.8 0.8-2.4 1.6-3.2 2.4z" fill="#DB9C00"/>
	<path d="m272.8 224.01c-0.8 0.8-2.4 1.6-3.2 3.2 0.8 13.6 0.8 27.2 1.6 40.8l4 3.2c-0.8-16-1.6-32.8-2.4-47.2z" fill="#996A00"/>
	<path d="m232 230.41c0.8 15.2 6.4 25.6 16 32 9.6-6.4 15.2-16.8 15.2-32-6.4 0-12-1.6-15.2-4.8-3.2 3.2-9.6 4.8-16 4.8z" fill="#DB9C00"/>
	<path d="m232 230.41c0 1.6 0.8 2.4 0.8 4l23.2 20c4.8-6.4 7.2-14.4 7.2-24-6.4 0-12-1.6-15.2-4.8-3.2 3.2-9.6 4.8-16 4.8z" fill="#996A00"/>
	<g fill="#DB9C00">
		<path d="m222.4 284.81c0.8 0 1.6 0.8 2.4 0.8 0-1.6-1.6-1.6-2.4-0.8v0z"/>
		<path d="m271.2 285.61c0.8 0 1.6-0.8 2.4-0.8 0-0.8-2.4-0.8-2.4 0.8z"/>
		<path d="m229.6 286.41c-0.8-0.8-1.6-0.8-3.2-0.8 0.8 0.8 2.4 0.8 3.2 0.8z"/>
		<path d="m266.4 286.41c0.8 0 3.2 0 3.2-0.8-1.6 0-3.2 0.8-3.2 0.8z"/>
		<path d="m257.6 288.01h3.2c0-1.6-2.4-1.6-3.2 0z"/>
		<path d="m238.4 287.21c-0.8 0-3.2-0.8-3.2 0.8 0.8-0.8 3.2 0 3.2-0.8z"/>
		<path d="m243.2 287.21c-0.8 0-3.2 0-3.2 0.8 0.8 0 2.4 0 3.2-0.8z"/>
		<path d="m252.8 288.01c0.8 0 1.6 0 3.2 0.8 0-1.6-2.4-1.6-3.2-0.8z"/>
	</g>
	<g fill="#F5FEFF">
		<path d="m276.8 293.61c-2.4 0-1.6-4-3.2-4.8-0.8 0-1.6 0-2.4 0.8 2.4-1.6 3.2 2.4 3.2 4.8-0.8 0-0.8-0.8-1.6-0.8-1.6 0-1.6 1.6-3.2 1.6 0-0.8-0.8-0.8-2.4-0.8-0.8-0.8 0-2.4-0.8-2.4 0 0.8 0.8 1.6 0.8 2.4-0.8 0.8-0.8 0.8-0.8 1.6h-1.6c0-0.8 0-1.6-0.8-1.6 0 0.8-1.6 0.8-0.8 1.6 0 0 0.8 0 1.6 0.8 0 0.8-0.8 0.8-0.8 1.6 0.8 0 0.8-0.8 1.6-1.6 1.6 0 3.2-0.8 4 0 0.8 0 0.8-1.6 1.6-1.6 1.6 1.6 3.2-0.8 4-0.8s1.6 0 2.4 0v-0.8c-0.8-0.8 0 0-0.8 0zm-13.6 2.4c0-0.8 0-0.8 0.8-0.8v0.8s0 0.8-0.8 0zm4 0v-1.6c0.8 0 0.8 0.8 0 1.6zm2.4-0.8h-0.8c-1.6-0.8 0.8-1.6 0.8 0zm-0.8 0.8c0-0.8 0.8-0.8 0.8-0.8 0 0.8-0.8 1.6-0.8 0.8zm2.4-0.8c0-1.6 1.6-1.6 2.4-0.8 0 0.8-1.6 0.8-2.4 0.8z"/>
		<path d="m223.2 290.41v0c-0.8-0.8-0.8-0.8-1.6-0.8v0.8h1.6z"/>
		<path d="m222.4 291.21h-1.6c0.8 0.8 0.8 0.8 1.6 0z"/>
		<path d="m254.4 293.61v-0.8h-0.8s0 0.8 0.8 0.8c-0.8 0 0 0 0 0z"/>
		<path d="m236 298.41c-0.8-0.8-0.8-1.6-1.6-2.4 1.6-0.8 0.8-3.2 0-3.2s-0.8 0.8-1.6 0.8c0 0.8 0.8 0.8 0.8 1.6-0.8 0-2.4 0.8-3.2 0 0-0.8 0-1.6-0.8-1.6 0 0.8 0.8 2.4-0.8 3.2 0.8 0 0.8-0.8 1.6-0.8 0.8 0.8 2.4 0 3.2 0 1.6 0.8 1.6 3.2 2.4 2.4 1.6 0 1.6-4 0.8-5.6 0 1.6 1.6 5.6-0.8 5.6zm-3.2-3.2c0-2.4 3.2 0 0.8 0.8l-0.8-0.8z"/>
		<path d="m239.2 297.61c0-1.6 0.8-4 0-4.8 0 0.8-0.8 3.2 0 4.8z"/>
		<path d="m258.4 294.41c-0.8 0.8 0.8 0.8 0 1.6 0 0.8-0.8 0.8-1.6 0.8-1.6-0.8 0-4-0.8-4.8 0 0.8 0.8 2.4 0 4-0.8 0-1.6 0-1.6 0.8h4.8s0.8-2.4-0.8-2.4z"/>
		<path d="m255.2 294.41c0-0.8-0.8 0-0.8 0-1.6 0 0.8 0.8 0.8 0z"/>
		<path d="m260.8 294.41c-0.8 0.8 0.8 1.6 0.8 2.4s-0.8 0.8-0.8 1.6c0.8 0 1.6-3.2 0-4zm0.8 2.4c-0.8 0-0.8-0.8-0.8-0.8 0-0.8 0.8 0 0.8 0.8z"/>
		<path d="m275.2 295.21c0.8 0 1.6 0.8 1.6 0-0.8 0-1.6-0.8-1.6 0z"/>
		<path d="m250.4 297.61h-0.8c0-0.8 0-1.6-0.8-1.6-1.6 0.8-4 0-5.6-0.8 0 0.8 0.8 1.6-0.8 2.4-0.8 0-0.8-1.6-1.6-1.6-0.8 0.8 0.8 1.6 0.8 1.6 0 0.8-0.8 1.6-1.6 2.4 0.8 0 1.6-1.6 2.4-2.4h4.8c0 0.8 0.8 0.8 1.6 1.6 0.8 0 0.8-1.6 0.8-1.6 1.6 0 2.4 0 3.2-0.8 0-1.6-2.4-0.8-2.4 0.8zm-2.4 1.6c-0.8 0-0.8-0.8-0.8-1.6h-3.2c0-3.2 3.2 0 4.8-1.6 0.8 1.6 0 2.4-0.8 3.2zm3.2-1.6c-0.8-0.8 0.8-1.6 0.8-0.8s0 0.8-0.8 0.8z"/>
		<path d="m222.4 297.61v-0.8s0-0.8-0.8 0c0-0.8 0 0 0.8 0.8z"/>
		<path d="m223.2 297.61c0.8 0.8 1.6 0 1.6-0.8-0.8-0.8-1.6 0-1.6 0.8z"/>
		<path d="m225.6 297.61h0.8c0-1.6-1.6-0.8-0.8 0z"/>
		<path d="m256 298.41c-0.8 0-0.8 1.6 0 1.6v-1.6z"/>
		<path d="m256.8 299.21c0 0.8 0.8 0.8 0.8 0.8 1.6-0.8-0.8-2.4-0.8-0.8z"/>
		<path d="m228 293.61c1.6 2.4-1.6 3.2-2.4 1.6 0-0.8 0.8-0.8 0.8-1.6-0.8 0-0.8 1.6-0.8 1.6-3.2 0-0.8-4-0.8-5.6h-0.8c0 1.6-0.8 3.2-2.4 4 0 1.6 1.6 1.6 3.2 2.4 0.8 0.8 2.4 0.8 3.2 0.8 0-1.6 1.6-3.2 0-3.2z"/>
	</g>
</svg>
